<mxfile host="app.diagrams.net" agent="Mozilla/5.0 (Windows NT 10.0; Win64; x64) AppleWebKit/537.36 (KHTML, like Gecko) Chrome/122.0.0.0 Safari/537.36" version="27.2.0">
  <diagram name="第 1 页" id="0NJ0XbHlpLDk5NXM7LYE">
    <mxGraphModel dx="1042" dy="571" grid="1" gridSize="10" guides="1" tooltips="1" connect="1" arrows="1" fold="1" page="1" pageScale="1" pageWidth="827" pageHeight="1169" math="0" shadow="0">
      <root>
        <mxCell id="0" />
        <mxCell id="1" parent="0" />
        <mxCell id="FOX3OvhaHhHGADisjsV--1" value="" style="rounded=0;whiteSpace=wrap;html=1;fontFamily=宋体;" parent="1" vertex="1">
          <mxGeometry x="95" y="120" width="810" height="520" as="geometry" />
        </mxCell>
        <mxCell id="FOX3OvhaHhHGADisjsV--43" value="" style="rounded=1;whiteSpace=wrap;html=1;fontFamily=宋体;" parent="1" vertex="1">
          <mxGeometry x="110" y="250" width="780" height="370" as="geometry" />
        </mxCell>
        <mxCell id="FOX3OvhaHhHGADisjsV--3" value="" style="rounded=1;whiteSpace=wrap;html=1;fontFamily=宋体;" parent="1" vertex="1">
          <mxGeometry x="130" y="150" width="740" height="90" as="geometry" />
        </mxCell>
        <mxCell id="FOX3OvhaHhHGADisjsV--4" value="&lt;font style=&quot;font-size: 16px;&quot;&gt;表示层&lt;/font&gt;" style="text;html=1;align=center;verticalAlign=middle;whiteSpace=wrap;rounded=0;fontFamily=宋体;" parent="1" vertex="1">
          <mxGeometry x="130" y="175" width="90" height="40" as="geometry" />
        </mxCell>
        <mxCell id="FOX3OvhaHhHGADisjsV--7" value="" style="rounded=1;whiteSpace=wrap;html=1;fontFamily=宋体;" parent="1" vertex="1">
          <mxGeometry x="220" y="165" width="280" height="60" as="geometry" />
        </mxCell>
        <mxCell id="FOX3OvhaHhHGADisjsV--8" value="&lt;font style=&quot;font-size: 16px;&quot;&gt;Controller层&lt;/font&gt;" style="rounded=1;whiteSpace=wrap;html=1;fontFamily=宋体;" parent="1" vertex="1">
          <mxGeometry x="700" y="165" width="150" height="60" as="geometry" />
        </mxCell>
        <mxCell id="FOX3OvhaHhHGADisjsV--9" value="&lt;font style=&quot;font-size: 16px;&quot;&gt;View层&lt;/font&gt;" style="text;html=1;align=center;verticalAlign=middle;whiteSpace=wrap;rounded=0;fontFamily=宋体;" parent="1" vertex="1">
          <mxGeometry x="220" y="165" width="60" height="30" as="geometry" />
        </mxCell>
        <mxCell id="FOX3OvhaHhHGADisjsV--10" value="" style="rounded=0;whiteSpace=wrap;html=1;fontFamily=宋体;" parent="1" vertex="1">
          <mxGeometry x="280" y="172.5" width="210" height="45" as="geometry" />
        </mxCell>
        <mxCell id="FOX3OvhaHhHGADisjsV--11" value="&lt;font style=&quot;font-size: 16px;&quot;&gt;Vue&lt;/font&gt;" style="text;html=1;align=center;verticalAlign=middle;whiteSpace=wrap;rounded=0;fontFamily=宋体;" parent="1" vertex="1">
          <mxGeometry x="270" y="180" width="60" height="30" as="geometry" />
        </mxCell>
        <mxCell id="FOX3OvhaHhHGADisjsV--12" value="&lt;font style=&quot;font-size: 16px;&quot;&gt;pinia&lt;/font&gt;" style="rounded=0;whiteSpace=wrap;html=1;fontFamily=宋体;" parent="1" vertex="1">
          <mxGeometry x="320" y="180" width="50" height="30" as="geometry" />
        </mxCell>
        <mxCell id="FOX3OvhaHhHGADisjsV--13" value="&lt;font style=&quot;font-size: 16px;&quot;&gt;Element Plus&lt;/font&gt;" style="rounded=0;whiteSpace=wrap;html=1;fontFamily=宋体;" parent="1" vertex="1">
          <mxGeometry x="380" y="180" width="100" height="30" as="geometry" />
        </mxCell>
        <mxCell id="FOX3OvhaHhHGADisjsV--14" value="" style="sketch=0;outlineConnect=0;fontColor=#232F3E;gradientColor=none;fillColor=#232F3D;strokeColor=none;dashed=0;verticalLabelPosition=bottom;verticalAlign=top;align=center;html=1;fontSize=12;fontStyle=0;aspect=fixed;pointerEvents=1;shape=mxgraph.aws4.globe;fontFamily=宋体;" parent="1" vertex="1">
          <mxGeometry x="570" y="165" width="58" height="58" as="geometry" />
        </mxCell>
        <mxCell id="FOX3OvhaHhHGADisjsV--15" value="" style="endArrow=classic;html=1;rounded=0;exitX=1;exitY=0.5;exitDx=0;exitDy=0;fontFamily=宋体;" parent="1" source="FOX3OvhaHhHGADisjsV--7" target="FOX3OvhaHhHGADisjsV--14" edge="1">
          <mxGeometry width="50" height="50" relative="1" as="geometry">
            <mxPoint x="480" y="300" as="sourcePoint" />
            <mxPoint x="530" y="250" as="targetPoint" />
          </mxGeometry>
        </mxCell>
        <mxCell id="FOX3OvhaHhHGADisjsV--16" value="&lt;font style=&quot;font-size: 16px;&quot;&gt;请求&lt;/font&gt;" style="text;html=1;align=center;verticalAlign=middle;whiteSpace=wrap;rounded=0;fontFamily=宋体;" parent="1" vertex="1">
          <mxGeometry x="628" y="193" width="60" height="30" as="geometry" />
        </mxCell>
        <mxCell id="FOX3OvhaHhHGADisjsV--17" value="" style="endArrow=classic;html=1;rounded=0;fontFamily=宋体;" parent="1" source="FOX3OvhaHhHGADisjsV--14" edge="1">
          <mxGeometry width="50" height="50" relative="1" as="geometry">
            <mxPoint x="590" y="230" as="sourcePoint" />
            <mxPoint x="700" y="194" as="targetPoint" />
          </mxGeometry>
        </mxCell>
        <mxCell id="FOX3OvhaHhHGADisjsV--19" value="&lt;span style=&quot;font-size: 16px;&quot;&gt;响应&lt;/span&gt;" style="text;html=1;align=center;verticalAlign=middle;whiteSpace=wrap;rounded=0;fontFamily=宋体;" parent="1" vertex="1">
          <mxGeometry x="500" y="165" width="60" height="30" as="geometry" />
        </mxCell>
        <mxCell id="FOX3OvhaHhHGADisjsV--20" value="" style="rounded=1;whiteSpace=wrap;html=1;fontFamily=宋体;" parent="1" vertex="1">
          <mxGeometry x="130" y="270" width="740" height="90" as="geometry" />
        </mxCell>
        <mxCell id="FOX3OvhaHhHGADisjsV--21" value="&lt;font style=&quot;font-size: 16px;&quot;&gt;业务层&lt;/font&gt;" style="text;html=1;align=center;verticalAlign=middle;whiteSpace=wrap;rounded=0;fontFamily=宋体;" parent="1" vertex="1">
          <mxGeometry x="130" y="295" width="90" height="40" as="geometry" />
        </mxCell>
        <mxCell id="FOX3OvhaHhHGADisjsV--25" value="" style="rounded=1;whiteSpace=wrap;html=1;fontFamily=宋体;" parent="1" vertex="1">
          <mxGeometry x="130" y="390" width="740" height="90" as="geometry" />
        </mxCell>
        <mxCell id="FOX3OvhaHhHGADisjsV--26" value="&lt;font style=&quot;font-size: 16px;&quot;&gt;数据持久层&lt;/font&gt;" style="text;html=1;align=center;verticalAlign=middle;whiteSpace=wrap;rounded=0;fontFamily=宋体;" parent="1" vertex="1">
          <mxGeometry x="130" y="415" width="120" height="40" as="geometry" />
        </mxCell>
        <mxCell id="FOX3OvhaHhHGADisjsV--27" value="" style="rounded=1;whiteSpace=wrap;html=1;fontFamily=宋体;" parent="1" vertex="1">
          <mxGeometry x="135" y="510" width="740" height="90" as="geometry" />
        </mxCell>
        <mxCell id="FOX3OvhaHhHGADisjsV--29" value="&lt;font style=&quot;font-size: 16px;&quot;&gt;数据层&lt;/font&gt;" style="text;html=1;align=center;verticalAlign=middle;whiteSpace=wrap;rounded=0;fontFamily=宋体;" parent="1" vertex="1">
          <mxGeometry x="130" y="535" width="90" height="40" as="geometry" />
        </mxCell>
        <mxCell id="FOX3OvhaHhHGADisjsV--39" style="edgeStyle=orthogonalEdgeStyle;rounded=0;orthogonalLoop=1;jettySize=auto;html=1;fontFamily=宋体;" parent="1" source="FOX3OvhaHhHGADisjsV--30" target="FOX3OvhaHhHGADisjsV--37" edge="1">
          <mxGeometry relative="1" as="geometry" />
        </mxCell>
        <mxCell id="FOX3OvhaHhHGADisjsV--30" value="&lt;font style=&quot;font-size: 16px;&quot;&gt;Service层&lt;/font&gt;" style="rounded=1;whiteSpace=wrap;html=1;fontFamily=宋体;" parent="1" vertex="1">
          <mxGeometry x="430" y="285" width="200" height="60" as="geometry" />
        </mxCell>
        <mxCell id="FOX3OvhaHhHGADisjsV--31" value="&lt;font style=&quot;font-size: 16px;&quot;&gt;Mybatis-Plus&lt;/font&gt;" style="rounded=0;whiteSpace=wrap;html=1;fontFamily=宋体;" parent="1" vertex="1">
          <mxGeometry x="430" y="407.5" width="200" height="57.5" as="geometry" />
        </mxCell>
        <mxCell id="FOX3OvhaHhHGADisjsV--32" value="&lt;font style=&quot;font-size: 16px;&quot;&gt;Redis&lt;/font&gt;" style="rounded=0;whiteSpace=wrap;html=1;fontFamily=宋体;" parent="1" vertex="1">
          <mxGeometry x="285" y="527.5" width="120" height="55" as="geometry" />
        </mxCell>
        <mxCell id="FOX3OvhaHhHGADisjsV--36" value="&lt;font style=&quot;font-size: 16px;&quot;&gt;MySQL&lt;/font&gt;" style="rounded=0;whiteSpace=wrap;html=1;fontFamily=宋体;" parent="1" vertex="1">
          <mxGeometry x="470" y="527.5" width="120" height="55" as="geometry" />
        </mxCell>
        <mxCell id="FOX3OvhaHhHGADisjsV--37" value="&lt;font style=&quot;font-size: 16px;&quot;&gt;Dao层&lt;/font&gt;" style="rounded=1;whiteSpace=wrap;html=1;fontFamily=宋体;" parent="1" vertex="1">
          <mxGeometry x="660" y="527.5" width="150" height="52.5" as="geometry" />
        </mxCell>
        <mxCell id="FOX3OvhaHhHGADisjsV--38" style="edgeStyle=orthogonalEdgeStyle;rounded=0;orthogonalLoop=1;jettySize=auto;html=1;entryX=0.5;entryY=0;entryDx=0;entryDy=0;fontFamily=宋体;" parent="1" source="FOX3OvhaHhHGADisjsV--8" target="FOX3OvhaHhHGADisjsV--30" edge="1">
          <mxGeometry relative="1" as="geometry">
            <Array as="points">
              <mxPoint x="775" y="260" />
              <mxPoint x="530" y="260" />
            </Array>
          </mxGeometry>
        </mxCell>
        <mxCell id="FOX3OvhaHhHGADisjsV--44" value="&lt;font style=&quot;font-size: 16px;&quot;&gt;Model层&lt;/font&gt;" style="text;html=1;align=center;verticalAlign=middle;whiteSpace=wrap;rounded=0;fontFamily=宋体;" parent="1" vertex="1">
          <mxGeometry x="152.5" y="250" width="75" height="20" as="geometry" />
        </mxCell>
        <mxCell id="FOX3OvhaHhHGADisjsV--45" value="&lt;font style=&quot;font-size: 16px;&quot;&gt;Spring MVC&amp;nbsp; &amp;nbsp; &amp;nbsp; &amp;nbsp; &amp;nbsp;三层架构&lt;/font&gt;" style="text;html=1;align=center;verticalAlign=middle;whiteSpace=wrap;rounded=0;fontFamily=宋体;" parent="1" vertex="1">
          <mxGeometry x="390" y="120" width="257.5" height="30" as="geometry" />
        </mxCell>
      </root>
    </mxGraphModel>
  </diagram>
</mxfile>
